var enochian = {"glyphs":{"S":{"x_min":17.515625,"x_max":1194.765625,"ha":1210,"o":"m 872 1306 l 836 1250 l 836 962 q 1194 207 836 455 l 1194 -7 q 919 195 1014 43 q 794 512 824 346 q 764 818 764 678 q 764 841 764 830 q 763 869 763 853 q 772 1045 763 957 q 810 1250 780 1133 q 483 1167 743 1226 q 190 1101 222 1109 q 119 1066 157 1092 q 45 1017 81 1041 q 40 1187 45 1152 q 17 1293 36 1222 q 214 1261 106 1277 q 423 1246 323 1246 q 654 1265 536 1246 q 872 1306 772 1284 "},"a":{"x_min":20,"x_max":557,"ha":587,"o":"m 292 784 q 293 751 292 764 q 300 728 295 739 l 386 653 q 415 685 398 667 q 437 717 432 703 q 443 753 443 731 q 441 768 443 760 q 440 780 440 776 q 492 730 460 760 q 538 687 525 699 q 508 687 521 687 q 486 678 496 686 q 461 654 476 670 q 427 616 445 638 q 492 555 457 587 q 557 492 526 523 l 230 142 q 269 107 258 117 q 294 91 280 97 q 321 86 308 86 q 352 86 336 86 l 262 -13 q 259 2 259 -9 q 254 36 259 26 q 229 64 250 46 q 189 102 209 83 q 156 70 173 87 q 133 42 139 54 q 128 25 128 30 q 131 -6 131 3 q 66 44 82 31 q 37 70 50 58 q 104 97 71 66 q 146 141 130 125 q 100 182 120 166 q 71 206 81 198 q 41 214 61 214 q 20 213 25 213 q 71 267 37 228 q 107 307 105 305 q 103 277 103 283 q 114 251 103 260 l 185 186 l 476 490 q 355 601 416 548 q 257 686 294 654 q 230 692 244 692 q 204 688 220 692 l 292 784 "},"T":{"x_min":5.296875,"x_max":891.53125,"ha":898,"o":"m 890 1276 q 890 1261 890 1270 q 891 1237 890 1252 q 844 909 891 1102 q 636 468 797 716 q 164 1 474 221 q 70 100 83 83 q 5 196 58 116 q 459 506 300 348 q 682 793 619 664 q 890 1276 746 922 "},"N":{"x_min":28,"x_max":1110.328125,"ha":1098,"o":"m 975 771 q 1056 822 1025 794 q 1110 875 1087 850 q 1067 794 1113 835 q 979 723 1020 753 q 912 348 979 466 q 743 157 846 230 q 565 54 640 84 q 419 24 489 24 q 294 30 379 24 q 190 37 209 37 q 107 27 140 37 q 51 -11 74 17 q 50 13 50 -6 q 50 47 50 33 q 51 173 50 123 q 54 275 51 223 q 234 145 139 187 q 427 103 329 103 q 674 172 559 103 q 845 336 789 241 q 919 516 900 431 q 938 693 938 601 q 804 631 867 671 q 706 551 740 592 q 711 662 710 586 q 711 812 711 739 q 789 759 747 776 q 874 743 830 743 q 894 743 885 743 q 930 749 904 744 q 778 1072 907 927 q 465 1217 649 1217 q 205 1161 297 1217 q 30 1021 112 1105 q 28 1109 29 1060 q 28 1209 28 1158 q 28 1259 28 1235 q 30 1291 28 1283 q 77 1280 50 1283 q 143 1277 104 1277 q 245 1279 203 1277 q 324 1282 287 1280 q 637 1229 525 1282 q 818 1091 748 1177 q 926 928 887 1005 q 975 771 964 851 "},"K":{"x_min":-8,"x_max":1049,"ha":1052,"o":"m 357 1306 q 273 1215 295 1264 q 252 1126 252 1166 q 252 1115 252 1119 q 252 1109 252 1111 l 252 174 q 269 89 252 120 q 361 -4 287 58 l -8 -4 q 95 58 43 26 q 144 167 144 96 l 144 1109 q 122 1231 144 1191 q 38 1306 101 1271 l 357 1306 m 837 648 q 955 524 916 608 q 995 350 995 439 q 883 119 995 212 q 668 26 771 26 q 399 125 490 26 q 308 370 308 224 q 363 586 308 482 q 432 455 389 544 q 492 337 476 366 q 417 394 445 394 q 384 364 394 394 q 375 294 375 334 q 403 194 375 246 q 498 101 431 143 q 643 60 565 60 q 762 85 707 60 q 880 181 817 110 q 943 375 943 252 q 876 556 943 478 q 687 648 810 633 q 640 642 672 648 q 576 592 609 636 l 576 747 q 614 705 594 723 q 654 681 634 687 q 683 680 664 680 q 871 768 790 680 q 952 980 952 857 q 945 1065 952 998 q 859 1176 938 1132 q 679 1220 780 1220 q 637 1218 654 1220 q 602 1212 621 1217 q 553 1190 584 1206 q 480 1130 522 1175 l 480 1311 q 545 1287 512 1290 q 603 1282 578 1283 q 614 1282 607 1282 q 632 1282 621 1282 q 862 1228 749 1282 q 1005 1009 974 1174 q 968 823 999 901 q 854 682 937 744 q 949 721 907 693 q 1009 767 990 748 q 1047 823 1027 785 l 1049 736 q 1005 700 1021 710 q 954 677 990 690 q 878 656 919 663 q 837 648 837 649 "},"d":{"x_min":8,"x_max":711.703125,"ha":730,"o":"m 8 737 q 162 702 47 711 q 386 583 276 693 q 469 710 427 647 q 552 738 498 738 q 582 736 571 738 q 634 712 609 723 q 677 696 658 700 q 632 654 645 667 q 586 599 619 641 q 567 658 586 628 q 506 689 548 689 q 451 645 473 689 q 410 555 428 601 q 449 458 432 513 q 467 339 467 403 q 453 241 467 298 q 428 170 439 183 q 482 88 448 119 q 564 57 517 57 q 576 57 571 57 q 596 64 580 57 q 648 89 612 71 q 703 139 683 107 l 711 -23 q 678 -3 697 -10 q 627 4 660 4 l 592 4 q 562 5 574 4 q 515 27 551 6 q 452 74 478 47 q 400 135 423 108 q 256 20 330 43 q 120 -9 181 -2 q 82 -19 103 -13 q 39 -45 62 -26 l 38 108 q 96 54 64 75 q 160 34 128 34 q 168 34 165 34 q 173 35 172 34 q 251 56 195 35 q 364 145 306 77 q 428 281 422 212 q 434 360 434 350 q 434 376 434 371 q 371 555 434 490 q 238 645 308 620 q 155 671 169 670 q 136 672 141 672 q 60 648 91 672 q 8 582 29 624 l 8 737 "},"Y":{"x_min":16.75,"x_max":1149.015625,"ha":1175,"o":"m 16 1314 l 859 1314 l 859 127 l 998 127 q 1094 152 1055 127 q 1149 229 1134 178 l 1149 4 l 733 4 l 733 1211 l 175 1211 q 94 1174 137 1211 q 16 1083 55 1127 l 16 1314 "},"E":{"x_min":41,"x_max":1153,"ha":1132,"o":"m 43 1303 l 146 1303 l 253 1303 l 357 1303 l 450 1303 l 534 1303 l 608 1303 l 671 1303 l 725 1303 l 772 1303 l 811 1303 l 843 1303 l 871 1303 l 895 1303 l 914 1303 l 930 1303 l 946 1303 q 989 1303 969 1303 q 1030 1303 1010 1303 l 1030 173 q 1063 66 1037 108 q 1153 0 1088 25 l 798 0 q 902 84 883 38 q 928 172 922 131 l 928 1210 q 739 1210 831 1210 q 502 1210 648 1210 q 279 1210 356 1210 q 138 1164 196 1196 q 41 1056 80 1132 q 41 1172 41 1103 q 43 1303 42 1242 "},"j":{"x_min":14,"x_max":693.890625,"ha":714,"o":"m 14 792 l 519 792 l 519 79 l 602 79 q 660 94 636 79 q 693 140 684 109 l 693 5 l 444 5 l 444 730 l 109 730 q 60 708 85 730 q 14 653 36 680 l 14 792 "},"y":{"x_min":21,"x_max":700.90625,"ha":714,"o":"m 21 775 l 528 775 l 528 62 l 611 62 q 669 77 645 62 q 700 123 692 92 l 700 -12 l 453 -12 l 453 713 l 116 713 q 68 691 92 713 q 21 636 44 663 l 21 775 "},"Z":{"x_min":24,"x_max":1069,"ha":1087,"o":"m 600 1311 q 941 1170 813 1311 q 1069 881 1069 1029 q 1069 865 1069 873 q 1058 792 1066 854 q 882 618 1050 730 q 568 507 714 507 l 580 217 q 630 99 615 128 q 688 -2 644 70 l 362 -4 q 452 172 420 84 q 487 326 483 307 l 503 507 q 335 512 426 507 q 229 518 244 518 q 135 512 178 518 q 24 483 92 505 l 31 775 q 193 662 107 710 q 366 568 280 614 l 498 549 q 501 751 498 617 q 507 1059 504 885 q 511 1267 511 1234 q 356 1244 432 1255 q 203 1190 275 1228 q 35 1062 132 1151 l 39 1311 l 600 1311 m 545 1271 l 569 544 q 814 667 714 595 q 914 892 914 739 q 901 1015 914 916 q 783 1192 888 1113 q 545 1271 678 1271 "},"u":{"x_min":-1,"x_max":635.25,"ha":667,"o":"m 165 772 q 322 735 222 748 q 467 698 422 721 q 548 605 511 674 q 586 457 586 536 q 582 298 586 394 q 575 138 578 202 q 581 99 575 114 q 635 1 587 85 l 430 -1 q 497 58 472 14 q 539 143 522 102 q 544 184 542 163 q 551 227 546 206 q 556 270 556 247 q 495 385 556 345 q 366 425 434 425 q 209 349 265 425 q 153 188 153 274 q 177 96 153 144 q 245 -1 234 16 l -1 -1 q 85 163 47 29 q 174 371 122 297 q 370 446 226 446 q 476 418 427 446 q 553 354 525 390 q 555 373 554 362 q 556 403 556 385 q 532 555 556 484 q 462 646 509 627 q 381 669 414 664 q 320 675 348 675 q 226 663 263 675 q 163 638 189 651 l 165 772 "},"k":{"x_min":-18,"x_max":616,"ha":635,"o":"m 202 791 q 146 729 154 759 q 138 673 138 699 l 138 111 q 148 60 138 79 q 202 4 159 41 l -18 4 q 42 42 12 22 q 73 107 73 66 l 73 673 q 61 746 73 723 q 9 791 49 769 l 202 791 m 489 395 q 559 319 535 371 q 584 216 584 268 q 516 78 584 134 q 387 22 448 22 q 226 80 280 22 q 172 228 172 139 q 205 358 172 295 q 244 282 219 335 q 282 209 270 230 q 237 243 254 243 q 217 225 223 243 q 212 183 212 208 q 228 123 212 155 q 286 67 245 92 q 373 42 327 42 q 444 57 410 42 q 514 116 477 73 q 552 232 552 158 q 513 340 552 294 q 400 395 474 385 q 366 389 384 395 q 333 362 348 384 l 333 455 q 356 426 348 433 q 375 416 364 419 q 396 414 385 414 q 509 466 460 414 q 558 591 558 519 l 558 610 q 503 711 551 684 q 395 739 454 739 q 368 738 376 739 q 349 733 360 737 q 319 720 338 729 q 275 686 300 711 l 275 794 q 315 778 296 781 q 350 776 334 776 q 368 776 360 776 q 504 743 437 776 q 590 612 571 711 q 582 530 590 586 q 499 416 574 473 q 562 442 530 421 q 616 500 594 464 l 616 448 q 588 425 596 430 q 561 412 581 420 q 522 400 540 404 q 489 395 503 397 "},"g":{"x_min":6,"x_max":659,"ha":675,"o":"m 204 788 q 156 726 166 757 q 142 668 145 695 q 142 619 142 650 q 142 540 142 588 q 219 190 142 346 q 458 34 296 34 q 586 87 535 34 q 637 227 637 141 q 585 363 637 292 q 471 434 533 434 q 396 400 430 434 q 336 290 362 366 l 336 467 q 383 457 351 460 q 440 455 414 455 q 474 455 461 455 q 492 455 486 455 q 606 388 553 455 q 659 216 659 321 q 594 54 659 111 q 456 -3 529 -3 q 276 53 356 -3 q 156 197 196 110 q 95 391 115 284 q 72 563 76 498 q 67 663 69 627 q 54 731 65 698 q 6 788 44 764 l 204 788 "},"t":{"x_min":17.203125,"x_max":550.265625,"ha":571,"o":"m 548 772 q 550 748 550 759 q 522 550 550 664 q 397 286 494 435 q 112 6 300 137 q 61 61 72 47 q 17 123 50 75 q 289 310 193 213 q 424 483 386 406 q 548 772 462 560 "},"e":{"x_min":8,"x_max":674,"ha":730,"o":"m 8 780 q 308 780 160 780 q 601 780 456 780 l 601 103 q 608 55 601 88 q 674 0 615 22 l 461 0 q 518 42 502 18 q 540 103 534 66 l 540 727 q 461 726 525 726 q 366 726 397 726 q 203 726 232 726 q 149 726 174 726 q 76 706 115 722 q 8 632 38 690 l 8 780 "},"J":{"x_min":31.75,"x_max":1164.015625,"ha":1175,"o":"m 31 1314 l 874 1314 l 874 127 l 1013 127 q 1109 152 1070 127 q 1164 229 1149 178 l 1164 4 l 748 4 l 748 1211 l 190 1211 q 109 1174 152 1211 q 31 1083 70 1127 l 31 1314 "},"W":{"x_min":17,"x_max":1077.84375,"ha":1103,"o":"m 294 1285 q 554 1225 405 1237 q 786 1168 702 1212 q 933 1009 871 1123 q 996 761 996 894 q 986 462 996 693 q 977 230 977 231 q 1018 103 977 175 q 1077 2 1060 32 l 736 -1 q 844 98 803 25 q 914 238 885 170 q 920 305 917 271 q 932 377 924 338 q 940 447 940 415 q 839 641 940 574 q 627 708 739 708 q 367 583 460 708 q 274 314 274 459 q 338 120 274 221 q 427 2 411 25 l 17 2 q 161 276 100 52 q 308 620 223 499 q 635 742 393 742 q 813 696 733 742 q 940 591 893 650 q 942 630 941 611 q 944 674 942 649 q 905 927 944 809 q 785 1076 867 1045 q 653 1116 704 1108 q 551 1125 602 1125 q 394 1105 456 1125 q 290 1064 333 1085 l 294 1285 "},"v":{"x_min":-1,"x_max":635.25,"ha":651,"o":"m 165 772 q 322 735 222 748 q 467 698 422 721 q 548 605 511 674 q 586 457 586 536 q 582 298 586 394 q 575 138 578 202 q 581 99 575 114 q 635 1 587 85 l 430 -1 q 497 58 472 14 q 539 143 522 102 q 544 184 542 163 q 551 227 546 206 q 556 270 556 247 q 495 385 556 345 q 366 425 434 425 q 209 349 265 425 q 153 188 153 274 q 177 96 153 144 q 245 -1 234 16 l -1 -1 q 85 163 47 29 q 174 371 122 297 q 370 446 226 446 q 476 418 427 446 q 553 354 525 390 q 555 373 554 362 q 556 403 556 385 q 532 555 556 484 q 462 646 509 627 q 381 669 414 664 q 320 675 348 675 q 226 663 263 675 q 163 638 189 651 l 165 772 "},"s":{"x_min":9.578125,"x_max":715.9375,"ha":730,"o":"m 522 774 l 502 740 l 502 567 q 556 303 502 418 q 715 115 610 189 l 715 -12 q 527 149 596 21 q 458 482 458 278 q 457 493 458 486 q 456 510 456 500 q 462 614 456 563 q 486 740 467 665 q 296 693 452 728 q 116 652 139 658 q 71 631 94 646 q 26 601 47 616 q 24 702 26 682 q 9 767 21 722 q 128 747 63 756 q 254 738 193 738 q 392 749 321 738 q 522 774 463 760 "},"B":{"x_min":25.125,"x_max":1213,"ha":1216,"o":"m 793 1332 q 839 1314 812 1321 q 890 1304 867 1308 q 914 1304 895 1304 q 951 1304 933 1304 q 1132 1274 1052 1304 q 1213 1158 1213 1244 q 1146 987 1213 1036 q 945 939 1079 939 q 857 702 911 846 q 732 369 802 558 q 599 10 661 180 q 468 360 551 132 q 291 851 386 588 q 150 1246 197 1113 q 96 1294 136 1279 q 25 1317 60 1305 l 374 1317 q 337 1281 343 1300 q 332 1247 332 1263 q 361 1050 320 1228 q 492 502 402 872 q 591 77 583 131 q 656 256 600 101 q 805 672 712 412 q 916 989 897 933 q 1121 1018 1077 989 q 1165 1118 1165 1047 q 1116 1205 1165 1181 q 994 1230 1067 1230 q 931 1226 956 1230 q 883 1216 905 1223 q 834 1200 861 1208 q 792 1182 808 1191 l 793 1332 "},"H":{"x_min":34,"x_max":1184,"ha":1218,"o":"m 870 1303 q 1083 1115 982 1303 q 1184 676 1184 927 q 1109 372 1184 520 q 966 145 1034 225 q 800 -32 898 65 l 800 192 q 1029 336 953 233 q 1126 534 1105 439 q 1148 676 1148 628 q 1064 956 1148 799 q 870 1114 980 1114 q 716 1017 769 1114 q 640 789 662 920 q 627 676 633 732 l 836 676 l 836 571 l 382 571 l 382 676 l 591 676 q 577 784 584 730 q 500 1000 555 906 q 347 1094 445 1094 q 156 949 243 1094 q 70 675 70 805 q 154 408 70 527 q 452 189 239 289 l 452 -33 q 145 283 256 97 q 34 676 34 469 q 71 922 34 766 q 178 1196 108 1078 q 347 1314 248 1314 q 506 1216 444 1314 q 612 951 568 1119 q 704 1197 630 1092 q 870 1303 779 1303 "},"c":{"x_min":-18,"x_max":616,"ha":611,"o":"m 202 791 q 146 729 154 759 q 138 673 138 699 l 138 111 q 148 60 138 79 q 202 4 159 41 l -18 4 q 42 42 12 22 q 73 107 73 66 l 73 673 q 61 746 73 723 q 9 791 49 769 l 202 791 m 489 395 q 559 319 535 371 q 584 216 584 268 q 516 78 584 134 q 387 22 448 22 q 226 80 280 22 q 172 228 172 139 q 205 358 172 295 q 244 282 219 335 q 282 209 270 230 q 237 243 254 243 q 217 225 223 243 q 212 183 212 208 q 228 123 212 155 q 286 67 245 92 q 373 42 327 42 q 444 57 410 42 q 514 116 477 73 q 552 232 552 158 q 513 340 552 294 q 400 395 474 385 q 366 389 384 395 q 333 362 348 384 l 333 455 q 356 426 348 433 q 375 416 364 419 q 396 414 385 414 q 509 466 460 414 q 558 591 558 519 l 558 610 q 503 711 551 684 q 395 739 454 739 q 368 738 376 739 q 349 733 360 737 q 319 720 338 729 q 275 686 300 711 l 275 794 q 315 778 296 781 q 350 776 334 776 q 368 776 360 776 q 504 743 437 776 q 590 612 571 711 q 582 530 590 586 q 499 416 574 473 q 562 442 530 421 q 616 500 594 464 l 616 448 q 588 425 596 430 q 561 412 581 420 q 522 400 540 404 q 489 395 503 397 "},"q":{"x_min":10,"x_max":683,"ha":706,"o":"m 10 780 l 207 780 q 181 753 186 772 q 176 717 177 734 l 176 68 l 512 68 l 512 720 q 478 780 512 749 l 683 780 l 683 653 q 639 719 671 695 q 579 744 607 744 q 548 721 548 744 l 548 71 q 565 34 554 53 q 603 1 577 14 l 88 1 q 123 31 110 15 q 144 68 136 47 l 144 724 q 112 743 130 743 q 61 714 88 743 q 10 652 33 686 l 10 780 "},"b":{"x_min":-5,"x_max":707,"ha":722,"o":"m 456 783 q 483 773 466 776 q 514 766 499 769 q 529 766 520 766 q 552 766 537 766 q 661 748 615 766 q 707 680 707 731 q 667 577 707 606 q 546 548 628 548 q 484 389 524 491 q 399 170 443 287 q 335 -14 354 54 q 231 268 309 44 q 124 572 152 492 q 70 731 96 652 q 38 759 61 751 q -5 775 16 767 l 204 775 q 181 750 182 761 q 180 732 180 739 q 205 568 173 720 q 274 254 236 415 q 331 25 312 94 q 386 179 349 79 q 469 408 423 280 q 529 578 515 535 q 652 595 626 578 q 679 655 679 612 q 650 707 679 692 q 577 722 622 722 q 535 720 549 722 q 508 714 520 718 q 482 704 496 710 q 456 693 467 699 l 456 783 "},"D":{"x_min":22,"x_max":1195.28125,"ha":1205,"o":"m 22 1224 q 211 1172 88 1183 q 429 1129 334 1161 q 652 970 524 1097 q 790 1181 721 1075 q 926 1228 838 1228 q 978 1224 950 1228 q 1063 1183 1023 1201 q 1137 1159 1102 1165 q 1063 1089 1081 1108 q 984 996 1044 1069 q 955 1094 984 1042 q 854 1146 925 1146 q 745 1046 798 1146 q 693 922 693 947 q 758 761 730 852 q 787 563 787 670 q 763 401 787 501 q 724 280 739 301 q 829 129 766 169 q 950 90 892 90 q 967 90 961 90 q 1001 102 973 91 q 1089 144 1029 113 q 1182 227 1148 175 l 1195 -42 q 1131 -7 1164 -16 q 1056 1 1097 1 q 1027 1 1041 1 q 998 1 1012 1 q 950 4 973 1 q 868 41 928 8 q 764 120 809 73 q 678 222 716 178 q 490 58 593 112 q 316 -7 387 5 q 209 -19 245 -19 q 148 -36 183 -24 q 74 -79 113 -47 l 72 177 q 184 78 131 104 q 277 53 237 53 q 289 53 285 53 q 298 55 294 54 q 425 92 330 55 q 616 240 520 128 q 722 465 712 353 q 732 596 731 578 q 734 624 734 615 q 629 922 734 813 q 409 1073 524 1030 q 270 1116 293 1115 q 239 1117 248 1117 q 111 1077 164 1117 q 22 966 57 1038 l 22 1224 "},"I":{"x_min":31.75,"x_max":1164.015625,"ha":1194,"o":"m 31 1314 l 874 1314 l 874 127 l 1013 127 q 1109 152 1070 127 q 1164 229 1149 178 l 1164 4 l 748 4 l 748 1211 l 190 1211 q 109 1174 152 1211 q 31 1083 70 1127 l 31 1314 "},"G":{"x_min":31.75,"x_max":1122,"ha":1139,"o":"m 362 1319 q 283 1216 301 1270 q 257 1119 264 1162 l 259 906 q 312 512 259 706 q 482 190 365 318 q 786 62 600 62 q 997 148 911 62 q 1084 359 1084 234 l 1084 390 q 997 616 1084 504 q 809 728 910 728 q 685 670 743 728 q 585 487 627 612 l 583 781 q 654 766 613 771 q 744 762 695 762 q 807 762 788 762 q 844 765 826 763 q 1033 654 944 765 q 1122 366 1122 543 q 999 98 1122 197 q 784 0 877 0 q 484 93 616 0 q 283 333 351 186 q 182 656 215 480 q 143 941 149 832 q 136 1099 137 1051 q 121 1209 134 1147 q 31 1319 107 1271 l 362 1319 "},"z":{"x_min":4,"x_max":619,"ha":643,"o":"m 345 783 q 550 715 482 783 q 619 562 619 648 q 528 357 619 415 q 324 300 437 300 q 324 263 324 284 q 324 232 324 243 q 325 173 324 197 q 336 120 327 150 q 369 49 345 90 q 399 -1 393 8 l 203 -1 q 257 103 239 53 q 278 191 276 181 l 284 300 q 201 301 235 300 q 124 306 167 303 q 69 302 92 306 q 4 286 46 298 l 5 462 q 130 364 51 389 q 284 326 210 339 q 291 565 284 384 q 298 759 298 747 q 139 726 191 744 q 8 634 87 707 l 8 783 l 345 783 m 314 759 l 326 326 q 472 396 410 352 q 534 532 534 439 q 534 551 534 544 l 534 563 q 457 712 520 665 q 314 759 394 759 "},"U":{"x_min":17,"x_max":1077.84375,"ha":1098,"o":"m 294 1285 q 554 1225 405 1237 q 786 1168 702 1212 q 933 1009 871 1123 q 996 761 996 894 q 986 462 996 693 q 977 230 977 231 q 1018 103 977 175 q 1077 2 1060 32 l 736 -1 q 844 98 803 25 q 914 238 885 170 q 920 305 917 271 q 932 377 924 338 q 940 447 940 415 q 839 641 940 574 q 627 708 739 708 q 367 583 460 708 q 274 314 274 459 q 338 120 274 221 q 427 2 411 25 l 17 2 q 161 276 100 52 q 308 620 223 499 q 635 742 393 742 q 813 696 733 742 q 940 591 893 650 q 942 630 941 611 q 944 674 942 649 q 905 927 944 809 q 785 1076 867 1045 q 653 1116 704 1108 q 551 1125 602 1125 q 394 1105 456 1125 q 290 1064 333 1085 l 294 1285 "},"w":{"x_min":-1,"x_max":635.25,"ha":651,"o":"m 165 772 q 322 735 222 748 q 467 698 422 721 q 548 605 511 674 q 586 457 586 536 q 582 298 586 394 q 575 138 578 202 q 581 99 575 114 q 635 1 587 85 l 430 -1 q 497 58 472 14 q 539 143 522 102 q 544 184 542 163 q 551 227 546 206 q 556 270 556 247 q 495 385 556 345 q 366 425 434 425 q 209 349 265 425 q 153 188 153 274 q 177 96 153 144 q 245 -1 234 16 l -1 -1 q 85 163 47 29 q 174 371 122 297 q 370 446 226 446 q 476 418 427 446 q 553 354 525 390 q 555 373 554 362 q 556 403 556 385 q 532 555 556 484 q 462 646 509 627 q 381 669 414 664 q 320 675 348 675 q 226 663 263 675 q 163 638 189 651 l 165 772 "},"F":{"x_min":10,"x_max":1178,"ha":1202,"o":"m 1178 1083 q 1041 1069 1081 1083 q 979 1039 1002 1055 q 905 954 946 1002 q 801 825 864 906 q 942 734 889 752 q 1010 718 990 724 l 909 612 q 866 732 901 681 q 797 820 831 782 q 650 657 703 716 q 507 494 597 599 q 572 460 511 493 q 726 412 634 426 q 664 341 684 366 q 616 280 643 317 q 578 399 616 348 q 502 489 540 450 q 381 354 465 452 q 244 192 298 256 q 180 84 191 127 q 170 -5 170 41 l 10 156 q 33 153 25 153 q 110 179 82 153 q 158 233 138 205 q 367 471 230 316 q 648 793 503 626 q 855 1039 792 960 q 513 1007 620 1039 q 392 894 406 975 q 334 967 373 921 q 254 1060 294 1013 l 852 1058 q 917 1132 894 1076 q 941 1318 941 1188 l 1178 1083 "},"r":{"x_min":14,"x_max":576.171875,"ha":603,"o":"m 181 772 q 245 760 214 772 q 324 704 275 748 l 279 672 q 248 732 273 712 q 171 753 222 753 q 80 702 120 753 q 48 610 40 651 q 89 510 59 537 q 168 468 119 483 q 362 438 308 468 q 507 280 415 408 l 360 280 q 393 348 393 318 q 334 409 393 391 q 239 427 276 427 q 110 368 168 427 q 52 217 52 310 q 118 67 52 120 q 263 15 184 15 q 401 65 307 15 q 574 133 495 115 l 576 -18 q 534 20 553 11 q 486 30 515 30 q 367 5 431 30 q 264 -19 302 -19 q 88 47 137 -19 q 27 168 40 114 q 14 245 14 223 q 51 354 14 310 q 152 442 89 399 q 64 503 110 456 q 19 604 19 551 q 56 715 19 659 q 181 772 93 772 "},"x":{"x_min":12,"x_max":641.625,"ha":675,"o":"m 633 794 l 641 659 q 605 712 623 701 q 572 728 588 724 l 120 728 l 119 104 q 126 44 119 64 q 164 5 133 24 l 12 5 q 46 48 40 19 q 56 104 53 77 l 56 794 l 633 794 "},"V":{"x_min":17,"x_max":1077.84375,"ha":1103,"o":"m 294 1285 q 554 1225 405 1237 q 786 1168 702 1212 q 933 1009 871 1123 q 996 761 996 894 q 986 462 996 693 q 977 230 977 231 q 1018 103 977 175 q 1077 2 1060 32 l 736 -1 q 844 98 803 25 q 914 238 885 170 q 920 305 917 271 q 932 377 924 338 q 940 447 940 415 q 839 641 940 574 q 627 708 739 708 q 367 583 460 708 q 274 314 274 459 q 338 120 274 221 q 427 2 411 25 l 17 2 q 161 276 100 52 q 308 620 223 499 q 635 742 393 742 q 813 696 733 742 q 940 591 893 650 q 942 630 941 611 q 944 674 942 649 q 905 927 944 809 q 785 1076 867 1045 q 653 1116 704 1108 q 551 1125 602 1125 q 394 1105 456 1125 q 290 1064 333 1085 l 294 1285 "}," ":{"x_min":0,"x_max":0,"ha":661},"Q":{"x_min":18,"x_max":1138.375,"ha":1160,"o":"m 18 1299 l 344 1299 q 301 1254 310 1284 q 292 1194 293 1223 l 292 116 l 856 116 l 856 1203 q 798 1303 856 1250 l 1138 1303 l 1138 1090 q 1065 1203 1117 1163 q 965 1243 1014 1243 q 928 1233 943 1243 q 914 1205 914 1224 l 914 120 q 944 59 925 91 q 1007 4 964 27 l 147 4 q 213 65 199 37 q 235 116 228 92 l 239 1205 q 187 1238 216 1238 q 115 1203 154 1238 q 18 1083 77 1169 l 18 1299 "},"h":{"x_min":32,"x_max":720,"ha":728,"o":"m 532 770 q 659 656 599 770 q 720 392 720 543 q 629 128 720 257 q 477 -34 539 0 l 477 103 q 638 217 577 129 q 699 392 699 305 q 649 562 699 468 q 532 656 599 656 q 423 568 449 656 q 387 393 397 481 l 511 393 l 511 344 l 241 344 l 241 393 l 365 393 q 329 560 355 477 q 219 644 302 644 q 105 557 157 644 q 53 392 53 470 q 103 232 53 304 q 281 102 153 161 l 281 -32 q 98 157 165 46 q 32 392 32 269 q 83 633 32 491 q 219 776 134 776 q 314 717 277 776 q 377 558 351 659 q 434 707 389 644 q 532 770 478 770 "},"M":{"x_min":35,"x_max":1073.359375,"ha":1085,"o":"m 398 1262 q 545 1243 500 1262 q 619 1225 590 1225 q 718 1234 654 1225 l 648 1019 q 537 1163 615 1121 q 369 1205 459 1205 q 221 1163 319 1205 q 124 959 124 1121 q 186 760 124 816 q 338 704 248 704 q 389 707 369 704 q 442 718 409 710 l 429 613 q 317 651 373 651 q 153 534 217 651 q 89 321 89 418 q 174 112 89 213 q 513 11 259 11 q 714 57 626 11 q 893 192 802 103 q 1073 370 984 281 l 1073 86 q 1013 95 1041 95 q 893 46 968 95 q 740 -29 818 -1 q 507 -58 663 -58 q 171 55 308 -58 q 35 340 35 168 q 80 522 35 452 q 216 682 125 591 q 113 764 164 707 q 63 976 63 820 q 140 1181 63 1100 q 398 1262 217 1262 "},"C":{"x_min":16,"x_max":1073,"ha":1078,"o":"m 381 1306 q 297 1215 319 1264 q 276 1126 276 1166 q 276 1115 276 1119 q 276 1109 276 1111 l 276 174 q 293 89 276 120 q 385 -4 311 58 l 16 -4 q 119 58 67 26 q 168 167 168 96 l 168 1109 q 146 1231 168 1191 q 62 1306 125 1271 l 381 1306 m 861 648 q 979 524 940 608 q 1019 350 1019 439 q 907 119 1019 212 q 692 26 795 26 q 423 125 514 26 q 332 370 332 224 q 387 586 332 482 q 456 455 413 544 q 516 337 500 366 q 441 394 469 394 q 408 364 418 394 q 399 294 399 334 q 427 194 399 246 q 522 101 455 143 q 667 60 589 60 q 786 85 731 60 q 904 181 841 110 q 967 375 967 252 q 900 556 967 478 q 711 648 834 633 q 664 642 696 648 q 600 592 633 636 l 600 747 q 638 705 618 723 q 678 681 658 687 q 707 680 688 680 q 895 768 814 680 q 976 980 976 857 q 969 1065 976 998 q 883 1176 962 1132 q 703 1220 804 1220 q 661 1218 678 1220 q 626 1212 645 1217 q 577 1190 608 1206 q 504 1130 546 1175 l 504 1311 q 569 1287 536 1290 q 627 1282 602 1283 q 638 1282 631 1282 q 656 1282 645 1282 q 886 1228 773 1282 q 1029 1009 998 1174 q 992 823 1023 901 q 878 682 961 744 q 973 721 931 693 q 1033 767 1014 748 q 1071 823 1051 785 l 1073 736 q 1029 700 1045 710 q 978 677 1014 690 q 902 656 943 663 q 861 648 861 649 "},".":{"x_min":230,"x_max":381,"ha":603,"o":"m 245 127 q 306 155 269 155 q 353 139 330 155 q 381 78 381 115 q 365 31 381 54 q 304 4 341 4 q 257 19 280 4 q 230 80 230 43 q 245 127 230 104 "},"f":{"x_min":18,"x_max":719,"ha":733,"o":"m 719 644 q 637 636 660 644 q 600 619 613 628 q 555 565 581 596 q 493 488 528 533 q 580 440 544 448 q 623 435 601 437 l 557 363 q 532 435 553 405 q 490 488 511 465 l 316 292 q 380 260 348 276 q 448 243 409 248 q 411 201 429 223 q 382 164 393 179 q 359 236 382 206 q 313 289 336 267 q 242 210 294 271 q 158 111 191 149 q 120 47 126 72 q 114 -6 114 22 l 18 90 q 33 89 23 89 q 82 107 66 89 q 106 136 98 126 q 196 237 108 136 q 389 461 284 338 q 525 618 495 584 q 318 600 380 618 q 246 533 256 583 q 211 579 233 554 q 164 632 188 604 l 523 631 q 562 675 548 640 q 576 788 576 710 l 719 644 "},"L":{"x_min":13,"x_max":1069.875,"ha":1085,"o":"m 1065 1307 q 1065 1158 1065 1239 q 1065 1042 1065 1078 q 901 1159 983 1121 q 737 1197 818 1197 q 397 1006 540 1197 q 254 624 254 816 q 404 236 254 389 q 752 84 554 84 q 901 103 862 84 q 1069 208 941 123 q 1067 105 1068 152 q 1065 -1 1067 59 q 1021 18 1048 13 q 957 24 994 24 q 861 19 928 24 q 764 14 794 14 q 612 32 715 14 q 421 156 510 50 q 227 444 333 263 q 106 416 163 444 q 13 349 48 388 l 13 550 q 105 486 59 505 q 188 468 151 468 q 211 469 200 468 q 226 471 222 471 q 210 547 218 506 q 202 626 202 588 q 205 693 202 658 q 212 760 208 729 q 89 738 145 760 q 13 678 32 716 l 13 868 q 100 819 64 829 q 220 796 136 809 q 400 1105 306 1001 q 574 1233 494 1209 q 727 1264 654 1258 q 854 1276 800 1271 q 960 1288 909 1282 q 1065 1307 1010 1295 "},"i":{"x_min":14,"x_max":693.890625,"ha":722,"o":"m 14 792 l 519 792 l 519 79 l 602 79 q 660 94 636 79 q 693 140 684 109 l 693 5 l 444 5 l 444 730 l 109 730 q 60 708 85 730 q 14 653 36 680 l 14 792 "},"A":{"x_min":51,"x_max":954,"ha":966,"o":"m 504 1335 q 508 1285 504 1312 q 519 1243 512 1257 q 597 1169 551 1205 q 662 1119 643 1133 q 707 1168 675 1134 q 747 1222 738 1202 q 756 1284 756 1242 q 752 1329 756 1309 q 807 1279 783 1302 q 914 1175 831 1256 q 891 1177 907 1177 q 856 1173 870 1177 q 823 1156 843 1170 q 774 1111 803 1141 q 730 1055 745 1080 q 869 935 818 980 q 954 855 921 891 q 797 691 903 802 q 603 486 691 579 q 407 276 515 393 q 462 218 436 244 q 512 181 488 191 q 549 172 536 172 q 588 173 574 173 q 603 171 598 173 l 454 7 q 447 28 447 12 l 447 59 q 440 94 447 79 q 391 147 433 110 q 334 200 348 185 q 280 151 307 174 q 237 93 248 119 q 237 64 233 85 q 241 37 241 44 q 237 19 241 26 q 134 100 167 73 q 80 146 101 128 q 95 146 85 146 q 146 156 130 146 q 261 264 161 167 q 183 341 210 314 q 135 377 155 367 q 91 381 109 381 l 64 381 q 51 384 54 381 q 117 453 80 412 q 196 540 155 494 q 200 498 197 533 q 208 447 203 463 q 287 372 274 383 q 324 340 300 361 l 811 846 q 609 1032 711 944 q 445 1173 507 1119 q 421 1180 433 1180 q 398 1177 414 1180 q 380 1175 382 1175 q 357 1179 369 1175 q 430 1256 373 1194 q 504 1335 487 1318 "},"n":{"x_min":14,"x_max":662.265625,"ha":683,"o":"m 584 448 q 637 485 619 467 q 662 512 654 503 q 648 477 663 497 q 584 421 633 456 q 556 219 584 296 q 455 89 528 141 q 334 18 381 37 q 248 0 287 0 q 175 4 221 0 q 110 8 129 8 q 60 2 80 8 q 27 -20 41 -3 q 25 -4 25 -16 q 25 14 25 7 q 26 82 25 46 q 28 151 27 119 q 136 73 77 99 q 253 48 195 48 q 401 90 332 48 q 503 188 470 132 q 547 297 536 244 q 559 403 559 350 q 478 367 515 391 q 420 318 442 344 q 422 380 421 331 q 424 474 422 430 q 471 442 446 451 q 521 433 495 433 q 555 436 539 433 q 463 629 540 542 q 275 717 385 717 q 118 684 174 717 q 15 600 62 651 q 14 651 15 625 q 14 716 14 678 q 15 761 14 755 q 41 756 27 757 q 80 755 56 755 q 132 755 95 755 q 192 755 170 755 q 380 724 312 755 q 488 642 447 693 q 553 543 529 591 q 584 448 577 496 "},"O":{"x_min":33.0625,"x_max":1084.65625,"ha":1089,"o":"m 67 19 q 46 17 52 17 q 33 24 33 17 q 41 40 33 30 q 382 396 264 192 q 501 884 501 600 q 489 1091 501 992 q 439 1312 477 1189 l 727 1314 q 586 904 604 1164 q 493 463 568 645 q 67 19 417 282 m 449 88 q 733 244 630 173 q 869 331 835 314 q 1084 397 902 348 l 1083 153 q 960 193 1030 193 q 777 148 875 193 q 555 41 679 103 q 355 12 476 22 q 132 -5 234 2 l 130 29 q 349 48 285 29 q 449 88 414 67 "}," ":{"x_min":0,"x_max":0,"ha":661},"X":{"x_min":1,"x_max":1051.265625,"ha":1066,"o":"m 1038 1319 l 1051 1092 q 1000 1172 1026 1148 q 936 1208 974 1196 l 182 1208 l 181 170 q 192 71 181 105 q 254 5 204 36 l 1 5 q 61 77 49 30 q 75 170 72 125 l 75 1319 l 1038 1319 "},"P":{"x_min":16,"x_max":1135,"ha":1151,"o":"m 619 1320 q 834 1240 715 1320 q 1038 1015 953 1160 q 1123 690 1123 870 q 1066 427 1123 554 q 940 202 1010 300 q 864 104 870 104 q 1021 123 967 104 q 1135 221 1075 143 l 1135 7 l 789 7 q 789 31 791 21 q 787 51 788 41 q 793 77 787 65 q 915 241 857 152 q 1017 446 973 329 q 1061 686 1061 562 q 920 1021 1061 875 q 617 1168 779 1168 q 251 1033 411 1168 q 91 654 91 899 q 177 337 91 508 q 344 100 263 167 q 346 88 345 98 q 348 53 348 78 l 348 7 l 16 7 l 16 252 q 131 142 83 170 q 222 115 179 115 q 248 116 238 115 q 271 120 259 117 q 177 239 231 169 q 77 416 122 309 q 33 660 33 523 q 197 1110 33 900 q 619 1320 362 1320 "},"m":{"x_min":0,"x_max":623.015625,"ha":643,"o":"m 218 802 q 296 795 271 802 q 351 780 321 788 q 382 780 366 780 q 411 785 402 784 l 369 656 q 302 743 349 719 q 200 768 256 768 q 95 725 137 768 q 54 620 54 682 q 90 500 54 533 q 182 467 126 467 q 210 468 201 467 q 244 476 220 470 l 236 413 q 170 435 202 435 q 72 365 111 435 q 33 238 33 295 q 69 123 33 194 q 288 52 105 52 q 410 80 362 52 q 623 267 458 108 l 623 96 q 607 100 620 98 q 587 102 595 102 q 486 56 566 102 q 284 11 407 11 q 82 77 164 11 q 0 248 0 144 q 27 357 0 316 q 109 455 54 399 q 47 504 77 470 q 17 631 17 537 q 62 754 17 706 q 218 802 108 802 "},"l":{"x_min":16,"x_max":649.59375,"ha":675,"o":"m 646 766 q 646 677 646 726 q 646 607 646 628 q 547 678 599 654 q 449 701 494 701 q 246 587 332 701 q 160 356 160 473 q 250 123 160 215 q 459 31 341 31 q 567 51 526 31 q 649 107 616 84 q 649 92 649 101 q 649 73 649 83 q 649 23 649 48 q 646 -18 646 -10 q 581 -3 627 -3 q 517 -5 564 -3 q 463 -7 470 -7 q 375 1 436 -7 q 259 77 314 11 q 143 249 204 143 q 70 233 103 249 q 16 192 38 217 l 16 312 q 70 274 43 285 q 120 264 98 264 q 143 264 135 264 q 133 311 137 284 q 128 357 128 338 q 130 404 128 383 q 135 438 132 425 q 60 425 94 438 q 16 389 27 412 l 16 503 q 69 472 47 478 q 140 460 91 466 q 247 646 191 584 q 352 723 303 707 q 444 741 402 738 q 514 747 486 745 q 576 753 542 749 q 646 766 611 758 "},"p":{"x_min":35,"x_max":707,"ha":730,"o":"m 397 786 q 595 676 491 786 q 699 407 699 566 q 648 206 699 293 q 544 55 597 119 q 632 74 598 55 q 707 146 665 94 l 707 -3 l 499 -3 q 497 23 497 15 q 530 73 497 32 q 613 206 564 113 q 662 404 662 300 q 578 591 662 515 q 396 668 495 668 q 173 599 267 668 q 80 386 80 530 q 131 192 80 296 q 232 47 182 88 q 235 27 235 43 q 235 -3 235 11 l 35 -3 l 35 144 q 105 78 75 97 q 158 60 135 60 q 173 61 166 60 q 188 64 180 63 q 85 214 137 138 q 46 388 46 298 q 144 659 46 533 q 397 786 242 786 "},"R":{"x_min":17,"x_max":953.5,"ha":959,"o":"m 295 1274 q 418 1246 366 1274 q 534 1161 470 1218 l 460 1106 q 407 1209 449 1175 q 278 1244 364 1244 q 136 1169 200 1244 q 72 1024 72 1095 q 83 947 72 1010 q 144 838 94 883 q 274 767 195 793 q 597 715 505 767 q 840 453 689 663 l 595 453 q 636 514 624 487 q 648 566 648 541 q 571 660 648 623 q 394 698 494 698 q 178 601 275 698 q 82 347 82 505 q 192 100 82 189 q 433 12 302 12 q 576 50 505 12 q 719 129 648 88 q 950 210 823 182 l 953 -43 q 885 22 917 7 q 804 37 852 37 q 607 -3 720 37 q 433 -44 494 -44 q 141 65 220 -44 q 39 268 61 175 q 17 399 17 360 q 81 580 17 504 q 248 724 145 655 q 100 825 175 747 q 26 994 26 904 q 88 1179 26 1085 q 295 1274 150 1274 "},"o":{"x_min":58,"x_max":688.953125,"ha":706,"o":"m 79 -14 q 64 -16 71 -15 q 58 -13 58 -17 q 126 39 58 -7 q 267 211 195 87 q 339 504 339 334 q 332 627 339 568 q 301 760 325 686 l 474 762 q 390 516 400 672 q 333 252 379 361 q 79 -14 288 142 m 308 26 q 488 128 423 80 q 688 212 554 176 l 688 65 q 614 89 657 89 q 502 59 565 89 q 371 -2 438 30 q 248 -20 317 -14 q 117 -30 179 -26 l 117 -9 q 247 2 210 -9 q 308 26 285 13 "}}}
